<svg width="111" height="36" viewBox="0 0 111 36" fill="none" xmlns="http://www.w3.org/2000/svg">
<path d="M8.38709 5.0574C9.1577 5.05294 9.92374 5.18184 10.6542 5.43891C11.3518 5.69299 11.9893 6.10092 12.5236 6.63519C13.0817 7.20471 13.5226 7.88804 13.8192 8.64301C14.1667 9.55385 14.3528 10.5235 14.3682 11.5044C14.3682 11.7825 14.3928 12.1671 14.3928 12.6393C14.3928 13.1113 14.3928 13.4928 14.3682 13.7741C14.356 14.7553 14.1699 15.7256 13.8192 16.6355C13.5202 17.3881 13.0796 18.07 12.5236 18.6401C11.9909 19.1728 11.3526 19.5757 10.6542 19.8202C9.92333 20.0748 9.15734 20.2015 8.38709 20.1953C7.89031 20.2042 7.3943 20.1511 6.90956 20.0368C6.55764 19.9583 6.21663 19.8334 5.89471 19.665C5.63885 19.5236 5.40401 19.3439 5.19759 19.1315C5.01426 18.9404 4.84027 18.7397 4.67628 18.5301V19.1768C4.67309 19.377 4.5956 19.5679 4.46026 19.7091C4.32492 19.8504 4.14238 19.9308 3.9514 19.9333H0.721801C0.627418 19.9338 0.533879 19.9147 0.446524 19.8773C0.35917 19.8397 0.279713 19.7846 0.212686 19.7149C0.145661 19.6453 0.0923803 19.5625 0.0558874 19.4712C0.0193946 19.38 0.000404211 19.2822 0 19.1832V0.773412C0.00238077 0.573233 0.0790962 0.381907 0.213862 0.240046C0.348628 0.098186 0.530833 0.0169599 0.721801 0.0136108H4.08404C4.2753 0.0169389 4.45783 0.0980578 4.5931 0.239833C4.72836 0.381608 4.80576 0.572939 4.80893 0.773412V6.74835C4.95778 6.55439 5.11852 6.37079 5.29012 6.19871C5.50951 5.98812 5.75056 5.80378 6.00884 5.64908C6.32966 5.46971 6.66917 5.32976 7.0206 5.23199C7.46601 5.11255 7.92426 5.05387 8.38401 5.0574H8.38709ZM9.587 11.8471C9.54371 11.2263 9.32939 10.6322 8.97008 10.1368C8.7489 9.87535 8.47163 9.67279 8.16111 9.54574C7.8506 9.4187 7.51573 9.37082 7.18408 9.40605C6.83498 9.39721 6.48776 9.46209 6.16308 9.5968C5.89829 9.71901 5.65847 9.89355 5.4567 10.1109C5.27413 10.3221 5.12613 10.5636 5.01868 10.8254C4.91354 11.085 4.84097 11.3578 4.80276 11.637C4.72565 12.2898 4.72565 12.95 4.80276 13.6028C4.83679 13.8828 4.90953 14.1562 5.01868 14.4143C5.1271 14.6799 5.27724 14.9248 5.46286 15.1385C5.6618 15.3618 5.90219 15.54 6.16925 15.6623C6.49049 15.8025 6.83617 15.8708 7.18408 15.8627C7.51518 15.8982 7.84959 15.8511 8.15999 15.7253C8.47039 15.5994 8.74798 15.3983 8.97008 15.1385C9.32737 14.6419 9.54146 14.0483 9.587 13.4281C9.64255 12.9092 9.64255 12.3854 9.587 11.8665" fill="white"/>
<path d="M25.9531 5.34488C26.144 5.34823 26.3263 5.42946 26.461 5.57132C26.5957 5.71317 26.6724 5.90451 26.6748 6.10468V8.94019C26.6717 9.14012 26.5947 9.33097 26.4601 9.47266C26.3256 9.61436 26.1438 9.69584 25.9531 9.7H23.5193C21.8813 9.7 21.0516 10.5633 21.0516 12.2866V19.183C21.0484 19.3834 20.9711 19.5747 20.8358 19.7166C20.7006 19.8583 20.518 19.9394 20.3267 19.9428H16.9737C16.7828 19.9394 16.6005 19.8582 16.4657 19.7163C16.3311 19.5745 16.2543 19.3832 16.252 19.183V6.10468C16.2543 5.90451 16.3311 5.71317 16.4657 5.57132C16.6005 5.42946 16.7828 5.34823 16.9737 5.34488H20.0584C20.2496 5.34821 20.4321 5.42933 20.5674 5.5711C20.7026 5.71288 20.7801 5.90421 20.7832 6.10468V6.75132C21.2148 6.32509 21.715 5.98246 22.2608 5.73933C22.9172 5.46332 23.6204 5.33022 24.3275 5.34811L25.9531 5.34488Z" fill="white"/>
<path d="M27.166 15.7839C27.1551 15.1977 27.2719 14.6167 27.5077 14.0849C27.7434 13.5532 28.0918 13.0849 28.5263 12.7156C29.4239 11.9138 30.8922 11.3221 32.9188 10.9438L36.0435 10.3877C36.0591 9.98603 35.9353 9.59204 35.695 9.27873C35.5367 9.11783 35.3466 8.99534 35.1381 8.91992C34.9298 8.84449 34.7081 8.81798 34.4888 8.84224C34.1638 8.8255 33.8396 8.88861 33.5419 9.02654C33.367 9.11759 33.2006 9.22585 33.0452 9.34985C32.9173 9.48061 32.7605 9.57614 32.5888 9.62792C32.4223 9.6707 32.2509 9.68812 32.0797 9.67965H28.6867C28.5247 9.68759 28.3662 9.62835 28.2456 9.51476C28.1876 9.45904 28.1437 9.38912 28.1179 9.31124C28.092 9.23337 28.085 9.14998 28.0975 9.06857C28.1531 8.57861 28.3367 8.11426 28.6281 7.7268C28.9892 7.2149 29.4367 6.77659 29.9483 6.43352C31.2949 5.5186 32.8687 5.03957 34.4734 5.05618C35.4334 5.03768 36.3902 5.17845 37.3082 5.47325C38.0409 5.71392 38.719 6.10889 39.3008 6.63397C39.817 7.11965 40.2155 7.72694 40.4637 8.40577C40.7196 9.12976 40.8462 9.89697 40.837 10.669V19.1659C40.8338 19.3655 40.7568 19.556 40.6221 19.6971C40.4874 19.8383 40.3056 19.9191 40.1152 19.9224H36.7406C36.5502 19.9191 36.3685 19.8383 36.2338 19.6971C36.0991 19.556 36.022 19.3655 36.0189 19.1659V18.3705C35.5904 18.9323 35.0491 19.3883 34.4333 19.7057C33.6424 20.0702 32.7826 20.2405 31.9193 20.2037C31.2264 20.2135 30.5367 20.1043 29.8773 19.8804C29.3237 19.6824 28.8146 19.3677 28.3813 18.9556C27.9814 18.5619 27.666 18.0837 27.4559 17.5525C27.2548 16.9887 27.1504 16.3922 27.1475 15.7904L27.166 15.7839ZM33.2334 16.4371C33.6084 16.4383 33.9805 16.3681 34.3315 16.2301C34.656 16.0954 34.954 15.8992 35.2107 15.6514C35.4597 15.4113 35.6602 15.121 35.7998 14.7977C35.942 14.4652 36.0156 14.105 36.0157 13.7405L33.548 14.135C33.1311 14.2011 32.7336 14.3647 32.3852 14.6135C32.2501 14.7109 32.1397 14.8413 32.0634 14.9933C31.9871 15.1454 31.9472 15.3146 31.9471 15.4864C31.9329 15.6301 31.956 15.7751 32.0141 15.9061C32.0722 16.037 32.1632 16.1491 32.2771 16.2301C32.5701 16.3848 32.8966 16.4561 33.2242 16.4371" fill="white"/>
<path d="M56.9397 19.1728C56.9373 19.373 56.8606 19.5644 56.7258 19.7063C56.591 19.8481 56.4088 19.9294 56.2179 19.9327H52.8557C52.6644 19.9294 52.4818 19.8482 52.3465 19.7065C52.2113 19.5647 52.1339 19.3733 52.1308 19.1728V12.0599C52.1654 11.3638 51.9657 10.6772 51.5662 10.1199C51.3455 9.8677 51.0724 9.67186 50.7682 9.54744C50.4639 9.42301 50.1365 9.37332 49.8111 9.40215C49.4847 9.37255 49.1561 9.42352 48.8519 9.55097C48.5477 9.67842 48.2761 9.87882 48.059 10.1361C47.6697 10.6977 47.4769 11.3828 47.513 12.076V19.1891C47.5115 19.39 47.4346 19.5824 47.2989 19.7244C47.1633 19.8665 46.9799 19.9472 46.7881 19.9488H43.4259C43.235 19.9455 43.0528 19.8643 42.918 19.7224C42.7832 19.5805 42.7065 19.3893 42.7041 19.1891V6.08489C42.7049 5.88421 42.7811 5.69192 42.9162 5.5497C43.0513 5.40749 43.2345 5.3268 43.4259 5.3251H46.6555C46.8457 5.33007 47.0267 5.41192 47.1606 5.55352C47.2946 5.69512 47.3712 5.88552 47.3743 6.08489V6.73154C47.5373 6.5202 47.7146 6.32139 47.9048 6.13662C48.1389 5.92039 48.398 5.73575 48.676 5.58698C49.0122 5.41466 49.3661 5.2834 49.7309 5.19577C50.1918 5.08952 50.6624 5.0364 51.1344 5.03734C51.9333 5.03856 52.7268 5.17392 53.4849 5.43826C54.1733 5.67374 54.7996 6.07453 55.3141 6.60867C55.8434 7.17283 56.2488 7.85148 56.5016 8.59709C56.8054 9.51673 56.9516 10.4854 56.9335 11.4585V19.1728H56.9397Z" fill="white"/>
<path d="M63.6331 11.6521C63.5591 12.304 63.5591 12.9628 63.6331 13.6146C63.6628 14.2324 63.9232 14.8132 64.358 15.2312C64.8322 15.6573 65.4429 15.8792 66.067 15.8521C66.5288 15.8794 66.9902 15.7896 67.4119 15.5901C67.7236 15.4153 67.987 15.1591 68.1769 14.8465C68.2615 14.7015 68.3653 14.5697 68.4852 14.4553C68.6149 14.3404 68.7815 14.2814 68.9511 14.2904H72.4459C72.5433 14.2895 72.6399 14.309 72.7301 14.3478C72.8201 14.3867 72.9018 14.4441 72.9704 14.5167C73.0423 14.582 73.0979 14.6647 73.1323 14.7578C73.1667 14.8507 73.1788 14.9511 73.1677 15.0501C73.1109 15.5037 72.9936 15.9468 72.8192 16.3661C72.5679 17.0176 72.1909 17.6076 71.7118 18.0991C71.0907 18.736 70.3574 19.24 69.5526 19.5831C68.4494 20.0406 67.268 20.2541 66.0824 20.2104C65.1352 20.2208 64.1926 20.0713 63.2908 19.7675C62.4642 19.4894 61.6951 19.0507 61.0236 18.4742C60.3781 17.9194 59.8524 17.2274 59.4813 16.4437C59.093 15.6068 58.8776 14.6935 58.849 13.7634C58.8335 13.4853 58.8242 13.1167 58.8242 12.6383C58.8242 12.1597 58.8242 11.8009 58.849 11.5131C58.8665 10.6097 59.0702 9.72101 59.446 8.9079C59.8219 8.09479 60.3611 7.3765 61.0267 6.8023C61.699 6.22698 62.4679 5.78836 63.2938 5.50902C64.1964 5.20721 65.1382 5.0545 66.0854 5.05638C67.271 5.01418 68.4522 5.22767 69.5557 5.68362C70.3579 6.03616 71.0902 6.54276 71.7149 7.17736C72.1977 7.66576 72.5789 8.25358 72.8347 8.90388C73.0086 9.32339 73.126 9.76629 73.1832 10.2198C73.1915 10.3186 73.178 10.4182 73.1439 10.5107C73.1096 10.6032 73.0555 10.6862 72.9858 10.7533C72.9172 10.8258 72.8355 10.8833 72.7455 10.9221C72.6553 10.961 72.5588 10.9805 72.4613 10.9796H68.9511C68.7812 10.9902 68.6142 10.9311 68.4852 10.8147C68.3668 10.6988 68.263 10.5673 68.1769 10.4235C67.9895 10.1087 67.7254 9.85198 67.4119 9.67985C66.99 9.48125 66.5288 9.39145 66.067 9.41795C65.4417 9.38163 64.8278 9.60461 64.358 10.0387C64.1412 10.2446 63.9656 10.4934 63.8411 10.7709C63.7167 11.0484 63.646 11.349 63.6331 11.6553" fill="white"/>
<path d="M89.2619 19.1724C89.2595 19.3726 89.1828 19.5639 89.0481 19.7058C88.9133 19.8476 88.731 19.9289 88.5401 19.9322H85.1778C84.9866 19.9289 84.8041 19.8477 84.6688 19.706C84.5336 19.5642 84.4561 19.3728 84.453 19.1724V12.0594C84.4882 11.3633 84.2884 10.6764 83.8885 10.1194C83.6672 9.86534 83.3935 9.66746 83.0884 9.54085C82.7832 9.41423 82.4544 9.36222 82.1272 9.38875C81.8024 9.35851 81.4752 9.4089 81.1725 9.53584C80.8697 9.66279 80.5996 9.86274 80.3844 10.1194C79.9966 10.6821 79.803 11.3661 79.8353 12.0594V19.1724C79.8345 19.3731 79.7583 19.5654 79.6232 19.7075C79.4881 19.8498 79.305 19.9305 79.1135 19.9322H75.7513C75.56 19.9289 75.3774 19.8477 75.2422 19.706C75.1069 19.5642 75.0296 19.3728 75.0264 19.1724V0.772283C75.0296 0.571809 75.1069 0.380479 75.2422 0.238704C75.3774 0.0969285 75.56 0.0158097 75.7513 0.0124817H79.1135C79.3045 0.0158307 79.4866 0.0970567 79.6214 0.238917C79.7562 0.380778 79.8329 0.572104 79.8353 0.772283V6.74723C80.2965 6.21623 80.8586 5.79231 81.4854 5.50275C82.1123 5.21319 82.7901 5.0644 83.4752 5.06596C84.2727 5.05639 85.0664 5.18195 85.8256 5.43779C86.5126 5.67289 87.1378 6.07251 87.6518 6.60496C88.1812 7.17033 88.5865 7.85004 88.8393 8.59662C89.1449 9.5158 89.2911 10.4848 89.2712 11.458V19.1724H89.2619Z" fill="white"/>
<path d="M99.4205 5.3704L96.2403 0.701667C96.1754 0.61437 96.0582 0.475343 95.8979 0.284584C95.7966 0.184539 95.6766 0.107824 95.5453 0.059377C95.4141 0.0109303 95.2746 -0.00817338 95.136 0.00329642H91.1661C91.0121 0.00579744 90.8653 0.0709812 90.7564 0.185042C90.6476 0.299103 90.5854 0.453083 90.583 0.61437C90.5832 0.72794 90.6119 0.839452 90.6664 0.93769L96.4808 9.51536L99.4205 5.3704Z" fill="#FDB62E"/>
<path d="M97.0206 10.3689L90.9502 19.2958C90.9193 19.3535 90.8966 19.4156 90.8823 19.48C90.8791 19.5209 90.8791 19.562 90.8823 19.6029C90.8838 19.7619 90.9441 19.9141 91.0506 20.0274C91.157 20.1409 91.3012 20.2066 91.453 20.2107H95.463C95.7185 20.2388 95.9752 20.1712 96.1878 20.0199C96.3212 19.8852 96.4402 19.7356 96.5426 19.5737L99.9078 14.6012L99.9912 6.22391L97.0206 10.3689Z" fill="#A9D59B"/>
<path d="M109.121 0.187558C109.069 0.129314 109.005 0.0829124 108.935 0.0512158C108.866 0.0195193 108.79 0.00320036 108.714 0.00326563H104.704C104.564 -0.00826139 104.425 0.0108046 104.293 0.0592426C104.161 0.107681 104.04 0.184423 103.939 0.284554C103.781 0.465612 103.664 0.607873 103.599 0.701636L100.515 5.37037L103.374 9.64142L109.213 0.911794C109.262 0.811438 109.291 0.701221 109.297 0.588473C109.297 0.50849 109.281 0.429313 109.251 0.355883C109.221 0.282453 109.177 0.216347 109.121 0.161692" fill="#748BC5"/>
<path d="M108.856 19.2956L102.835 10.4819L99.969 6.22379L99.8857 14.601L103.279 19.5736C103.379 19.7378 103.5 19.8877 103.637 20.0198C103.846 20.1784 104.106 20.2466 104.362 20.2106H108.356C108.509 20.2073 108.655 20.1422 108.763 20.029C108.87 19.9156 108.933 19.7629 108.936 19.6027C108.935 19.5614 108.93 19.5203 108.92 19.4799C108.908 19.4162 108.888 19.3543 108.862 19.2956" fill="#F16878"/>
<path d="M22.204 32.8006C22.1363 32.8006 22.0822 32.7792 22.0415 32.7366C22.0008 32.694 21.9805 32.6371 21.9805 32.5661V25.5882C21.9805 25.51 22.0008 25.4497 22.0415 25.407C22.0822 25.3645 22.1363 25.3431 22.204 25.3431H24.8569C25.3312 25.3431 25.7174 25.4319 26.0155 25.6095C26.3204 25.787 26.5441 26.0214 26.6864 26.3126C26.8286 26.5967 26.8997 26.9092 26.8997 27.2501C26.8997 27.5555 26.8524 27.8183 26.7574 28.0384C26.6694 28.2516 26.5542 28.4256 26.4119 28.5605C26.2764 28.6955 26.1409 28.7985 26.0054 28.8695C26.2764 29.0115 26.5169 29.2387 26.7269 29.5513C26.9371 29.8637 27.0421 30.2437 27.0421 30.6912C27.0421 31.0463 26.9607 31.3872 26.7981 31.7139C26.6423 32.0334 26.4051 32.2962 26.0867 32.5022C25.7749 32.7011 25.3887 32.8006 24.928 32.8006H22.204ZM22.6208 32.1613H24.8264C25.3277 32.1613 25.714 32.0229 25.985 31.7459C26.2629 31.4689 26.4017 31.1173 26.4017 30.6912C26.4017 30.2579 26.2629 29.9064 25.985 29.6365C25.714 29.3595 25.3277 29.221 24.8264 29.221H22.6208V32.1613ZM22.6208 28.5818H24.7247C25.2261 28.5818 25.6056 28.4646 25.8631 28.2302C26.1273 27.9959 26.2594 27.6691 26.2594 27.2501C26.2594 26.8311 26.1273 26.5151 25.8631 26.3019C25.6056 26.0889 25.2261 25.9824 24.7247 25.9824H22.6208V28.5818Z" fill="white"/>
<path d="M29.9112 32.907C29.5859 32.907 29.2844 32.836 29.0066 32.694C28.7355 32.5519 28.5153 32.3638 28.346 32.1293C28.1765 31.8879 28.0918 31.618 28.0918 31.3197C28.0918 30.8367 28.2782 30.4497 28.6509 30.1585C29.0235 29.8673 29.508 29.679 30.1042 29.5938L31.7102 29.3595V28.9866C31.7102 28.6102 31.5984 28.3154 31.3747 28.1023C31.1579 27.8822 30.809 27.7721 30.3279 27.7721C29.9755 27.7721 29.691 27.8467 29.4742 27.9959C29.2573 28.1379 29.1082 28.3261 29.0269 28.5605C28.993 28.667 28.9287 28.7202 28.8338 28.7202H28.6712C28.5899 28.7202 28.5323 28.699 28.4984 28.6563C28.4645 28.6067 28.4475 28.5498 28.4475 28.4859C28.4475 28.3865 28.4815 28.2622 28.5492 28.113C28.6237 27.9639 28.7355 27.8183 28.8847 27.6762C29.0337 27.5271 29.2268 27.4029 29.464 27.3034C29.7012 27.204 29.9891 27.1542 30.3279 27.1542C30.7277 27.1542 31.0562 27.2111 31.3137 27.3246C31.5781 27.4383 31.7814 27.5874 31.9236 27.7721C32.0727 27.9497 32.1777 28.1486 32.2387 28.3687C32.2997 28.5889 32.3302 28.8055 32.3302 29.0186V32.5661C32.3302 32.6371 32.3099 32.694 32.2692 32.7366C32.2285 32.7792 32.1744 32.8006 32.1066 32.8006H31.9337C31.866 32.8006 31.8119 32.7792 31.7712 32.7366C31.7305 32.694 31.7102 32.6371 31.7102 32.5661V32.0654C31.6289 32.1933 31.5137 32.3211 31.3646 32.449C31.2155 32.5768 31.0224 32.6869 30.7852 32.7792C30.5549 32.8645 30.2635 32.907 29.9112 32.907ZM30.0128 32.2891C30.3245 32.2891 30.6091 32.2181 30.8666 32.0761C31.1241 31.9341 31.3274 31.7174 31.4764 31.4262C31.6322 31.128 31.7102 30.7551 31.7102 30.3076V29.9454L30.399 30.1372C29.8434 30.2153 29.4233 30.3503 29.1387 30.5421C28.8542 30.7337 28.7119 30.9753 28.7119 31.2664C28.7119 31.5009 28.7762 31.6925 28.905 31.8418C29.0337 31.9909 29.1963 32.1045 29.3928 32.1827C29.5961 32.2537 29.8027 32.2891 30.0128 32.2891Z" fill="white"/>
<path d="M34.1611 32.8006C34.0933 32.8006 34.0391 32.7792 33.9985 32.7366C33.9578 32.694 33.9375 32.6371 33.9375 32.5661V27.4951C33.9375 27.4241 33.9578 27.3673 33.9985 27.3246C34.0391 27.2821 34.0933 27.2608 34.1611 27.2608H34.3338C34.4016 27.2608 34.4558 27.2821 34.4965 27.3246C34.5371 27.3673 34.5575 27.4241 34.5575 27.4951V27.9959C34.7404 27.7473 34.9606 27.5449 35.2181 27.3886C35.4823 27.2323 35.8313 27.1542 36.265 27.1542C36.7257 27.1542 37.1085 27.2608 37.4135 27.4739C37.7252 27.6798 37.9555 27.9639 38.1047 28.3261C38.2605 28.6812 38.3384 29.086 38.3384 29.5406V32.5661C38.3384 32.6371 38.318 32.694 38.2774 32.7366C38.2367 32.7792 38.1825 32.8006 38.1148 32.8006H37.942C37.8742 32.8006 37.82 32.7792 37.7794 32.7366C37.7387 32.694 37.7184 32.6371 37.7184 32.5661V29.5938C37.7184 29.0257 37.5863 28.5818 37.322 28.2622C37.0578 27.9354 36.6715 27.7721 36.1633 27.7721C35.6823 27.7721 35.2926 27.9354 34.9945 28.2622C34.7031 28.5818 34.5575 29.0257 34.5575 29.5938V32.5661C34.5575 32.6371 34.5371 32.694 34.4965 32.7366C34.4558 32.7792 34.4016 32.8006 34.3338 32.8006H34.1611Z" fill="white"/>
<path d="M40.167 32.8004C40.0992 32.8004 40.045 32.7791 40.0043 32.7365C39.9637 32.6939 39.9434 32.637 39.9434 32.566V25.4708C39.9434 25.3998 39.9637 25.343 40.0043 25.3004C40.045 25.2578 40.0992 25.2365 40.167 25.2365H40.3398C40.4075 25.2365 40.4618 25.2578 40.5024 25.3004C40.5431 25.343 40.5634 25.3998 40.5634 25.4708V29.2422L42.8299 27.4418C42.9248 27.3637 42.9925 27.3139 43.0332 27.2925C43.0806 27.2713 43.1551 27.2607 43.2568 27.2607H43.4498C43.5108 27.2607 43.5583 27.282 43.5922 27.3245C43.6328 27.3601 43.6532 27.4098 43.6532 27.4737C43.6532 27.5021 43.643 27.5377 43.6227 27.5802C43.6091 27.6158 43.5753 27.6512 43.521 27.6868L40.9496 29.7323L43.7751 32.3742C43.8632 32.4595 43.9073 32.5306 43.9073 32.5874C43.9073 32.6512 43.887 32.7045 43.8463 32.7471C43.8124 32.7827 43.765 32.8004 43.704 32.8004H43.5413C43.4397 32.8004 43.3652 32.7933 43.3178 32.7791C43.2771 32.7578 43.2093 32.7046 43.1145 32.6192L40.5634 30.2436V32.566C40.5634 32.637 40.5431 32.6939 40.5024 32.7365C40.4618 32.7791 40.4075 32.8004 40.3398 32.8004H40.167Z" fill="white"/>
<path d="M45.1089 32.8004C45.0411 32.8004 44.9869 32.7791 44.9463 32.7365C44.9056 32.6939 44.8853 32.637 44.8853 32.566V27.495C44.8853 27.424 44.9056 27.3672 44.9463 27.3245C44.9869 27.282 45.0411 27.2607 45.1089 27.2607H45.2817C45.3494 27.2607 45.4036 27.282 45.4443 27.3245C45.4849 27.3672 45.5053 27.424 45.5053 27.495V32.566C45.5053 32.637 45.4849 32.6939 45.4443 32.7365C45.4036 32.7791 45.3494 32.8004 45.2817 32.8004H45.1089ZM44.9971 26.1207C44.9293 26.1207 44.8751 26.0994 44.8344 26.0568C44.7938 26.0142 44.7734 25.9574 44.7734 25.8864V25.4815C44.7734 25.4105 44.7938 25.3537 44.8344 25.311C44.8751 25.2614 44.9293 25.2365 44.9971 25.2365H45.3833C45.4511 25.2365 45.5053 25.2614 45.5459 25.311C45.5934 25.3537 45.6171 25.4105 45.6171 25.4815V25.8864C45.6171 25.9574 45.5934 26.0142 45.5459 26.0568C45.5053 26.0994 45.4511 26.1207 45.3833 26.1207H44.9971Z" fill="white"/>
<path d="M47.3711 32.8006C47.3034 32.8006 47.2491 32.7792 47.2085 32.7366C47.1679 32.694 47.1475 32.6371 47.1475 32.5661V27.4951C47.1475 27.4241 47.1679 27.3673 47.2085 27.3246C47.2491 27.2821 47.3034 27.2608 47.3711 27.2608H47.5439C47.6116 27.2608 47.6659 27.2821 47.7065 27.3246C47.7472 27.3673 47.7675 27.4241 47.7675 27.4951V27.9959C47.9504 27.7473 48.1707 27.5449 48.4281 27.3886C48.6924 27.2323 49.0414 27.1542 49.4751 27.1542C49.9358 27.1542 50.3186 27.2608 50.6236 27.4739C50.9353 27.6798 51.1656 27.9639 51.3146 28.3261C51.4705 28.6812 51.5484 29.086 51.5484 29.5406V32.5661C51.5484 32.6371 51.5281 32.694 51.4874 32.7366C51.4468 32.7792 51.3926 32.8006 51.3248 32.8006H51.1521C51.0843 32.8006 51.0301 32.7792 50.9894 32.7366C50.9488 32.694 50.9284 32.6371 50.9284 32.5661V29.5938C50.9284 29.0257 50.7963 28.5818 50.5321 28.2622C50.2678 27.9354 49.8816 27.7721 49.3734 27.7721C48.8923 27.7721 48.5027 27.9354 48.2046 28.2622C47.9132 28.5818 47.7675 29.0257 47.7675 29.5938V32.5661C47.7675 32.6371 47.7472 32.694 47.7065 32.7366C47.6659 32.7792 47.6116 32.8006 47.5439 32.8006H47.3711Z" fill="white"/>
<path d="M55.1157 35.1445C54.6821 35.1445 54.3263 35.0842 54.0485 34.9634C53.7774 34.8427 53.5641 34.6935 53.4081 34.5159C53.2591 34.3455 53.1541 34.1715 53.0931 33.9939C53.0321 33.8235 52.9982 33.685 52.9914 33.5785C52.9847 33.5074 53.0051 33.4471 53.0524 33.3973C53.0999 33.3548 53.1541 33.3334 53.2151 33.3334H53.3574C53.4116 33.3334 53.4589 33.3441 53.4996 33.3654C53.5403 33.3938 53.5742 33.4578 53.6013 33.5571C53.6419 33.6708 53.7063 33.8022 53.7944 33.9513C53.8893 34.1076 54.0349 34.2426 54.2314 34.3561C54.4347 34.4698 54.7126 34.5266 55.0649 34.5266C55.4376 34.5266 55.7493 34.4769 55.9999 34.3775C56.2506 34.278 56.4404 34.1005 56.5691 33.8448C56.7046 33.5962 56.7724 33.2482 56.7724 32.8008V32.0656C56.603 32.3072 56.3794 32.5095 56.1016 32.673C55.8306 32.8292 55.485 32.9073 55.0649 32.9073C54.6719 32.9073 54.3364 32.8328 54.0586 32.6835C53.7876 32.5344 53.5674 32.3355 53.3981 32.087C53.2286 31.8384 53.1033 31.5614 53.0219 31.2561C52.9406 30.9506 52.8966 30.6417 52.8898 30.3291C52.8831 30.1304 52.8831 29.9315 52.8898 29.7326C52.8966 29.4201 52.9406 29.1111 53.0219 28.8058C53.1033 28.5003 53.2286 28.2234 53.3981 27.9747C53.5674 27.7262 53.7876 27.5274 54.0586 27.3782C54.3364 27.2291 54.6719 27.1545 55.0649 27.1545C55.485 27.1545 55.8306 27.2362 56.1016 27.3995C56.3794 27.5628 56.603 27.7617 56.7724 27.9961V27.5061C56.7724 27.4351 56.7928 27.3782 56.8334 27.3356C56.874 27.2858 56.9283 27.2611 56.996 27.2611H57.1586C57.2264 27.2611 57.2806 27.2858 57.3213 27.3356C57.3686 27.3782 57.3924 27.4351 57.3924 27.5061V32.6942C57.3924 33.1488 57.328 33.5607 57.1993 33.93C57.0705 34.2994 56.8401 34.594 56.5081 34.8143C56.1829 35.0344 55.7188 35.1445 55.1157 35.1445ZM55.1259 32.2894C55.5121 32.2894 55.8238 32.1935 56.0609 32.0017C56.2981 31.81 56.4709 31.5721 56.5793 31.2879C56.6945 30.9968 56.7588 30.7056 56.7724 30.4144C56.7791 30.3079 56.7826 30.18 56.7826 30.0309C56.7826 29.8818 56.7791 29.7539 56.7724 29.6473C56.7588 29.3562 56.6945 29.0685 56.5793 28.7844C56.4709 28.4932 56.2981 28.2518 56.0609 28.06C55.8238 27.8683 55.5121 27.7724 55.1259 27.7724C54.7329 27.7724 54.4178 27.8647 54.1806 28.0494C53.9503 28.234 53.7842 28.4755 53.6826 28.7738C53.5809 29.0721 53.5234 29.3917 53.5098 29.7326C53.5031 29.9315 53.5031 30.1304 53.5098 30.3291C53.5234 30.67 53.5809 30.9897 53.6826 31.2879C53.7842 31.5863 53.9503 31.8277 54.1806 32.0124C54.4178 32.1971 54.7329 32.2894 55.1259 32.2894Z" fill="white"/>
<path d="M62.0254 32.8006C61.9576 32.8006 61.9034 32.7792 61.8627 32.7366C61.8221 32.694 61.8018 32.6371 61.8018 32.5661V25.5882C61.8018 25.51 61.8221 25.4497 61.8627 25.407C61.9034 25.3645 61.9576 25.3431 62.0254 25.3431H65.9486C66.0232 25.3431 66.0807 25.3645 66.1214 25.407C66.1621 25.4497 66.1824 25.51 66.1824 25.5882V25.7479C66.1824 25.819 66.1621 25.8758 66.1214 25.9185C66.0807 25.961 66.0232 25.9824 65.9486 25.9824H62.442V28.8481H65.7454C65.8199 28.8481 65.8774 28.8695 65.9181 28.912C65.9587 28.9547 65.9791 29.015 65.9791 29.0931V29.2529C65.9791 29.3239 65.9587 29.3808 65.9181 29.4234C65.8774 29.466 65.8199 29.4874 65.7454 29.4874H62.442V32.5661C62.442 32.6371 62.4217 32.694 62.3811 32.7366C62.3405 32.7792 62.2828 32.8006 62.2083 32.8006H62.0254Z" fill="white"/>
<path d="M69.3593 32.9073C68.8715 32.9073 68.4615 32.8008 68.1295 32.5878C67.8042 32.3746 67.5535 32.0834 67.3774 31.7142C67.208 31.3448 67.1165 30.9328 67.103 30.4784C67.0962 30.3718 67.0928 30.2227 67.0928 30.0309C67.0928 29.8391 67.0962 29.69 67.103 29.5835C67.1165 29.1218 67.208 28.7099 67.3774 28.3476C67.5535 27.9783 67.8042 27.6872 68.1295 27.4741C68.4615 27.2611 68.8715 27.1545 69.3593 27.1545C69.8472 27.1545 70.2537 27.2611 70.579 27.4741C70.911 27.6872 71.1617 27.9783 71.3311 28.3476C71.5072 28.7099 71.6022 29.1218 71.6157 29.5835C71.6224 29.69 71.6259 29.8391 71.6259 30.0309C71.6259 30.2227 71.6224 30.3718 71.6157 30.4784C71.6022 30.9328 71.5072 31.3448 71.3311 31.7142C71.1617 32.0834 70.911 32.3746 70.579 32.5878C70.2537 32.8008 69.8472 32.9073 69.3593 32.9073ZM69.3593 32.2894C69.8337 32.2894 70.2199 32.1296 70.518 31.81C70.8162 31.4904 70.9754 31.0287 70.9957 30.425C71.0025 30.3186 71.0059 30.1871 71.0059 30.0309C71.0059 29.8747 71.0025 29.7432 70.9957 29.6367C70.9754 29.0259 70.8162 28.5643 70.518 28.2518C70.2199 27.9322 69.8337 27.7724 69.3593 27.7724C68.885 27.7724 68.4988 27.9322 68.2007 28.2518C67.9025 28.5643 67.7433 29.0259 67.723 29.6367C67.7162 29.7432 67.7128 29.8747 67.7128 30.0309C67.7128 30.1871 67.7162 30.3186 67.723 30.425C67.7433 31.0287 67.9025 31.4904 68.2007 31.81C68.4988 32.1296 68.885 32.2894 69.3593 32.2894Z" fill="white"/>
<path d="M73.2383 32.8006C73.1706 32.8006 73.1163 32.7792 73.0756 32.7367C73.035 32.694 73.0146 32.6372 73.0146 32.5661V27.5059C73.0146 27.4348 73.035 27.378 73.0756 27.3353C73.1163 27.2856 73.1706 27.2608 73.2383 27.2608H73.4009C73.4686 27.2608 73.5229 27.2856 73.5636 27.3353C73.6109 27.378 73.6346 27.4348 73.6346 27.5059V27.9959C73.7566 27.7473 73.9328 27.5626 74.1631 27.4419C74.3936 27.3212 74.6781 27.2608 75.0169 27.2608H75.393C75.4608 27.2608 75.515 27.2821 75.5556 27.3247C75.5963 27.3673 75.6166 27.4241 75.6166 27.4952V27.6443C75.6166 27.7153 75.5963 27.7721 75.5556 27.8148C75.515 27.8573 75.4608 27.8787 75.393 27.8787H74.956C74.5494 27.8787 74.2276 28.003 73.9904 28.2516C73.7533 28.5001 73.6346 28.8375 73.6346 29.2636V32.5661C73.6346 32.6372 73.6109 32.694 73.5636 32.7367C73.5229 32.7792 73.4686 32.8006 73.4009 32.8006H73.2383Z" fill="white"/>
<path d="M79.2764 32.8006C79.2086 32.8006 79.1544 32.7792 79.1137 32.7366C79.0731 32.694 79.0527 32.6371 79.0527 32.5661V25.5882C79.0527 25.51 79.0731 25.4497 79.1137 25.407C79.1544 25.3645 79.2086 25.3431 79.2764 25.3431H81.9291C82.4034 25.3431 82.7896 25.4319 83.0878 25.6095C83.3927 25.787 83.6163 26.0214 83.7586 26.3126C83.9009 26.5967 83.9721 26.9092 83.9721 27.2501C83.9721 27.5555 83.9246 27.8183 83.8298 28.0384C83.7416 28.2516 83.6264 28.4256 83.4842 28.5605C83.3486 28.6955 83.2131 28.7985 83.0776 28.8695C83.3486 29.0115 83.5892 29.2387 83.7993 29.5513C84.0093 29.8637 84.1143 30.2437 84.1143 30.6912C84.1143 31.0463 84.0331 31.3872 83.8704 31.7139C83.7146 32.0334 83.4774 32.2962 83.1589 32.5022C82.8472 32.7011 82.4611 32.8006 82.0002 32.8006H79.2764ZM79.6931 32.1613H81.8986C82.4001 32.1613 82.7863 32.0229 83.0573 31.7459C83.3351 31.4689 83.4741 31.1173 83.4741 30.6912C83.4741 30.2579 83.3351 29.9064 83.0573 29.6365C82.7863 29.3595 82.4001 29.221 81.8986 29.221H79.6931V32.1613ZM79.6931 28.5818H81.797C82.2984 28.5818 82.6779 28.4646 82.9354 28.2302C83.1996 27.9959 83.3317 27.6691 83.3317 27.2501C83.3317 26.8311 83.1996 26.5151 82.9354 26.3019C82.6779 26.0889 82.2984 25.9824 81.797 25.9824H79.6931V28.5818Z" fill="white"/>
<path d="M85.7939 32.8004C85.7261 32.8004 85.672 32.7791 85.6313 32.7365C85.5906 32.6939 85.5703 32.637 85.5703 32.566V25.4708C85.5703 25.3998 85.5906 25.343 85.6313 25.3004C85.672 25.2578 85.7261 25.2365 85.7939 25.2365H85.9667C86.0345 25.2365 86.0886 25.2578 86.1293 25.3004C86.17 25.343 86.1903 25.3998 86.1903 25.4708V27.9957C86.3733 27.7471 86.5935 27.5448 86.851 27.3884C87.1152 27.2322 87.4642 27.1541 87.8978 27.1541C88.3586 27.1541 88.7415 27.2607 89.0463 27.4737C89.358 27.6797 89.5884 27.9638 89.7375 28.326C89.8933 28.6811 89.9712 29.0859 89.9712 29.5405V32.566C89.9712 32.637 89.9509 32.6939 89.9102 32.7365C89.8697 32.7791 89.8154 32.8004 89.7477 32.8004H89.5748C89.507 32.8004 89.4529 32.7791 89.4122 32.7365C89.3715 32.6939 89.3512 32.637 89.3512 32.566V29.5937C89.3512 29.0256 89.2192 28.5817 88.9548 28.262C88.6906 27.9353 88.3043 27.772 87.7962 27.772C87.3151 27.772 86.9255 27.9353 86.6273 28.262C86.336 28.5817 86.1903 29.0256 86.1903 29.5937V32.566C86.1903 32.637 86.17 32.6939 86.1293 32.7365C86.0886 32.7791 86.0345 32.8004 85.9667 32.8004H85.7939Z" fill="white"/>
<path d="M92.9882 32.9073C92.663 32.9073 92.3615 32.8363 92.0837 32.6942C91.8127 32.5522 91.5924 32.364 91.423 32.1296C91.2537 31.8882 91.1689 31.6183 91.1689 31.3199C91.1689 30.837 91.3552 30.4499 91.7279 30.1587C92.1007 29.8676 92.5851 29.6793 93.1814 29.5941L94.7872 29.3598V28.9869C94.7872 28.6104 94.6754 28.3156 94.4519 28.1026C94.235 27.8824 93.8861 27.7724 93.405 27.7724C93.0527 27.7724 92.768 27.847 92.5512 27.9961C92.3344 28.1382 92.1854 28.3263 92.104 28.5608C92.0702 28.6672 92.0057 28.7205 91.9109 28.7205H91.7482C91.667 28.7205 91.6094 28.6992 91.5755 28.6566C91.5417 28.6069 91.5247 28.5501 91.5247 28.4862C91.5247 28.3868 91.5585 28.2624 91.6263 28.1133C91.7009 27.9642 91.8127 27.8185 91.9617 27.6765C92.1108 27.5274 92.3039 27.4031 92.541 27.3036C92.7782 27.2042 93.0662 27.1545 93.405 27.1545C93.8047 27.1545 94.1334 27.2113 94.3909 27.3249C94.6551 27.4386 94.8584 27.5877 95.0007 27.7724C95.1498 27.95 95.2548 28.1488 95.3158 28.369C95.3767 28.5891 95.4072 28.8058 95.4072 29.0188V32.5664C95.4072 32.6374 95.3869 32.6942 95.3463 32.7369C95.3056 32.7794 95.2514 32.8008 95.1836 32.8008H95.0109C94.9431 32.8008 94.8889 32.7794 94.8482 32.7369C94.8076 32.6942 94.7872 32.6374 94.7872 32.5664V32.0656C94.7059 32.1935 94.5907 32.3214 94.4417 32.4492C94.2926 32.5771 94.0995 32.6871 93.8624 32.7794C93.6319 32.8647 93.3406 32.9073 92.9882 32.9073ZM93.0899 32.2894C93.4016 32.2894 93.6862 32.2184 93.9437 32.0763C94.2012 31.9343 94.4044 31.7176 94.5535 31.4265C94.7094 31.1282 94.7872 30.7554 94.7872 30.3079V29.9457L93.4761 30.1375C92.9205 30.2156 92.5004 30.3505 92.2158 30.5423C91.9312 30.734 91.7889 30.9755 91.7889 31.2667C91.7889 31.5011 91.8533 31.6928 91.982 31.842C92.1107 31.9911 92.2734 32.1047 92.4699 32.1829C92.6732 32.2539 92.8799 32.2894 93.0899 32.2894Z" fill="white"/>
<path d="M97.2383 32.8006C97.1704 32.8006 97.1163 32.7792 97.0756 32.7367C97.0349 32.694 97.0146 32.6372 97.0146 32.5661V27.5059C97.0146 27.4348 97.0349 27.378 97.0756 27.3353C97.1163 27.2856 97.1704 27.2608 97.2383 27.2608H97.4009C97.4686 27.2608 97.5229 27.2856 97.5636 27.3353C97.6109 27.378 97.6346 27.4348 97.6346 27.5059V27.9959C97.7566 27.7473 97.9328 27.5626 98.1631 27.4419C98.3936 27.3212 98.6781 27.2608 99.0169 27.2608H99.393C99.4608 27.2608 99.5149 27.2821 99.5556 27.3247C99.5963 27.3673 99.6166 27.4241 99.6166 27.4952V27.6443C99.6166 27.7153 99.5963 27.7721 99.5556 27.8148C99.5149 27.8573 99.4608 27.8787 99.393 27.8787H98.9559C98.5494 27.8787 98.2276 28.003 97.9904 28.2516C97.7532 28.5001 97.6346 28.8375 97.6346 29.2636V32.5661C97.6346 32.6372 97.6109 32.694 97.5636 32.7367C97.5229 32.7792 97.4686 32.8006 97.4009 32.8006H97.2383Z" fill="white"/>
<path d="M101.893 32.907C101.567 32.907 101.266 32.836 100.988 32.694C100.717 32.5519 100.497 32.3638 100.327 32.1293C100.158 31.8879 100.073 31.618 100.073 31.3197C100.073 30.8367 100.26 30.4497 100.632 30.1585C101.005 29.8673 101.489 29.679 102.086 29.5938L103.692 29.3595V28.9866C103.692 28.6102 103.58 28.3154 103.356 28.1023C103.139 27.8822 102.79 27.7721 102.309 27.7721C101.957 27.7721 101.672 27.8467 101.456 27.9959C101.239 28.1379 101.09 28.3261 101.008 28.5605C100.974 28.667 100.91 28.7202 100.815 28.7202H100.653C100.571 28.7202 100.514 28.699 100.48 28.6563C100.446 28.6067 100.429 28.5498 100.429 28.4859C100.429 28.3865 100.463 28.2622 100.531 28.113C100.605 27.9639 100.717 27.8183 100.866 27.6762C101.015 27.5271 101.208 27.4029 101.445 27.3034C101.682 27.204 101.97 27.1542 102.309 27.1542C102.709 27.1542 103.038 27.2111 103.295 27.3246C103.559 27.4383 103.763 27.5874 103.905 27.7721C104.054 27.9497 104.159 28.1486 104.22 28.3687C104.281 28.5889 104.312 28.8055 104.312 29.0186V32.5661C104.312 32.6371 104.291 32.694 104.251 32.7366C104.21 32.7792 104.156 32.8006 104.088 32.8006H103.915C103.847 32.8006 103.793 32.7792 103.753 32.7366C103.712 32.694 103.692 32.6371 103.692 32.5661V32.0654C103.61 32.1933 103.495 32.3211 103.346 32.449C103.197 32.5768 103.004 32.6869 102.767 32.7792C102.536 32.8645 102.245 32.907 101.893 32.907ZM101.994 32.2891C102.306 32.2891 102.59 32.2181 102.848 32.0761C103.105 31.9341 103.309 31.7174 103.458 31.4262C103.614 31.128 103.692 30.7551 103.692 30.3076V29.9454L102.38 30.1372C101.825 30.2153 101.405 30.3503 101.12 30.5421C100.836 30.7337 100.693 30.9753 100.693 31.2664C100.693 31.5009 100.758 31.6925 100.886 31.8418C101.015 31.9909 101.178 32.1045 101.374 32.1827C101.577 32.2537 101.784 32.2891 101.994 32.2891Z" fill="white"/>
<path d="M107.647 32.8004C107.295 32.8004 107.017 32.7223 106.813 32.566C106.61 32.4098 106.468 32.1967 106.387 31.9268C106.305 31.6569 106.265 31.3551 106.265 31.0213V27.8786H105.472C105.404 27.8786 105.35 27.8572 105.309 27.8147C105.269 27.772 105.249 27.7152 105.249 27.6441V27.495C105.249 27.424 105.269 27.3672 105.309 27.3245C105.35 27.282 105.404 27.2607 105.472 27.2607H106.265V25.4708C106.265 25.3998 106.286 25.343 106.326 25.3004C106.367 25.2578 106.421 25.2365 106.489 25.2365H106.661C106.729 25.2365 106.783 25.2578 106.824 25.3004C106.864 25.343 106.885 25.3998 106.885 25.4708V27.2607H108.146C108.213 27.2607 108.267 27.282 108.308 27.3245C108.348 27.3672 108.369 27.424 108.369 27.495V27.6441C108.369 27.7152 108.348 27.772 108.308 27.8147C108.267 27.8572 108.213 27.8786 108.146 27.8786H106.885V30.9786C106.885 31.3551 106.942 31.6499 107.058 31.8629C107.18 32.076 107.393 32.1825 107.698 32.1825H108.246C108.315 32.1825 108.369 32.2038 108.41 32.2465C108.45 32.289 108.47 32.3459 108.47 32.4169V32.566C108.47 32.637 108.45 32.6939 108.41 32.7365C108.369 32.7791 108.315 32.8004 108.246 32.8004H107.647Z" fill="white"/>
</svg>
