<svg width="24" height="24" viewBox="0 0 24 24" fill="none" xmlns="http://www.w3.org/2000/svg">
<path d="M9.9998 4H4.7692C4.34438 4 4 4.34438 4 4.7692V9.9998C4 10.4246 4.34438 10.769 4.7692 10.769H9.9998C10.4246 10.769 10.769 10.4246 10.769 9.9998V4.7692C10.769 4.34438 10.4246 4 9.9998 4Z" stroke="white" stroke-linecap="round" stroke-linejoin="round"/>
<path d="M19.2303 4H13.9997C13.5749 4 13.2305 4.34438 13.2305 4.7692V9.9998C13.2305 10.4246 13.5749 10.769 13.9997 10.769H19.2303C19.6551 10.769 19.9995 10.4246 19.9995 9.9998V4.7692C19.9995 4.34438 19.6551 4 19.2303 4Z" stroke="white" stroke-linecap="round" stroke-linejoin="round"/>
<path d="M9.9998 13.2305H4.7692C4.34438 13.2305 4 13.5749 4 13.9997V19.2303C4 19.6551 4.34438 19.9995 4.7692 19.9995H9.9998C10.4246 19.9995 10.769 19.6551 10.769 19.2303V13.9997C10.769 13.5749 10.4246 13.2305 9.9998 13.2305Z" stroke="white" stroke-linecap="round" stroke-linejoin="round"/>
<path d="M19.2303 13.2305H13.9997C13.5749 13.2305 13.2305 13.5749 13.2305 13.9997V19.2303C13.2305 19.6551 13.5749 19.9995 13.9997 19.9995H19.2303C19.6551 19.9995 19.9995 19.6551 19.9995 19.2303V13.9997C19.9995 13.5749 19.6551 13.2305 19.2303 13.2305Z" stroke="white" stroke-linecap="round" stroke-linejoin="round"/>
</svg>
