<svg width="24" height="24" viewBox="0 0 24 24" fill="none" xmlns="http://www.w3.org/2000/svg">
<path d="M14.5254 14.5264L15.7886 15.7895" stroke="#4B5565" stroke-width="1.03226" stroke-linecap="round" stroke-linejoin="round"/>
<path d="M16.1539 17.916C15.6674 17.4295 15.6674 16.6408 16.1539 16.1544C16.6403 15.6679 17.429 15.6679 17.9155 16.1544L19.6347 17.8736C20.1212 18.3601 20.1212 19.1488 19.6347 19.6352C19.1483 20.1217 18.3596 20.1217 17.8731 19.6352L16.1539 17.916Z" stroke="#4B5565" stroke-width="1.03226" stroke-linecap="round" stroke-linejoin="round"/>
<path d="M15.7895 9.89475C15.7895 6.63917 13.1503 4 9.89475 4C6.63917 4 4 6.63917 4 9.89475C4 13.1503 6.63917 15.7895 9.89475 15.7895C13.1503 15.7895 15.7895 13.1503 15.7895 9.89475Z" stroke="#4B5565" stroke-width="1.03226" stroke-linecap="round" stroke-linejoin="round"/>
</svg>
