<svg width="24" height="24" viewBox="0 0 24 24" fill="none" xmlns="http://www.w3.org/2000/svg">
<path d="M18.7851 10.4445C19.169 10.0126 19.8314 9.35982 19.7961 9.09398C19.8233 8.83541 19.6833 8.59251 19.4034 8.10673L19.0086 7.42147C18.7099 6.90323 18.5606 6.6441 18.3065 6.54077C18.0525 6.43744 17.7652 6.51898 17.1906 6.68205L16.2143 6.957C15.8475 7.0416 15.4626 6.99361 15.1276 6.82149L14.8581 6.666C14.5709 6.48202 14.3499 6.21074 14.2276 5.89188L13.9604 5.094C13.7848 4.56601 13.697 4.30201 13.4879 4.15101C13.2788 4 13.001 4 12.4456 4H11.5538C10.9983 4 10.7205 4 10.5115 4.15101C10.3024 4.30201 10.2146 4.56601 10.0389 5.094L9.77179 5.89188C9.64947 6.21074 9.42852 6.48202 9.14125 6.666L8.87174 6.82149C8.53679 6.99361 8.15184 7.0416 7.78497 6.957L6.80885 6.68205C6.23423 6.51898 5.94688 6.43744 5.69281 6.54077C5.43874 6.6441 5.28947 6.90323 4.99084 7.42147L4.59597 8.10673C4.31607 8.59251 4.17615 8.83541 4.20327 9.09398C4.23047 9.35254 4.41782 9.56091 4.79252 9.97765L5.61737 10.8997C5.81889 11.1549 5.96208 11.5997 5.96208 11.9995C5.96208 12.3997 5.81897 12.8443 5.61737 13.0996L4.79252 14.0217C4.41782 14.4384 4.23047 14.6468 4.20327 14.9054C4.17615 15.164 4.31607 15.4069 4.59597 15.8926L4.99084 16.5779C5.28947 17.0961 5.43874 17.3553 5.69281 17.4586C5.94688 17.5619 6.23423 17.4804 6.80885 17.3173L7.78497 17.0423C8.15192 16.9577 8.53687 17.0058 8.8719 17.1779L9.14133 17.3334C9.4286 17.5174 9.64947 17.7886 9.77171 18.1075L10.0389 18.9055C10.2146 19.4334 10.3117 19.7079 10.4717 19.8234C10.5197 19.8581 10.7117 20.0154 11.1821 20.001M5.21429 13.5574C4.8303 13.9894 4.16793 14.6421 4.20328 14.908C4.17609 15.1665 4.31608 15.4094 4.59599 15.8952L4.99078 16.5805C5.28941 17.0987 5.43876 17.3579 5.69283 17.4612C5.94683 17.5645 6.23418 17.483 6.8088 17.3199L7.785 17.045C8.15187 16.9604 8.53674 17.0083 8.87177 17.1805L9.14128 17.336C9.42847 17.5199 9.64942 17.7912 9.77174 18.1101L10.0389 18.908C10.2145 19.4359 10.3024 19.6999 10.5115 19.8509C10.7206 20.002 10.9983 20.002 11.5538 20.002H12.4456C13.0011 20.002 13.2788 20.002 13.4878 19.8509C13.6969 19.6999 13.7848 19.4359 13.9605 18.908L14.2276 18.1101C14.3499 17.7912 14.5708 17.5199 14.8581 17.336L15.1276 17.1805C15.4626 17.0083 15.8475 16.9604 16.2144 17.045L17.1905 17.3199C17.7651 17.483 18.0525 17.5645 18.3065 17.4612C18.5606 17.3579 18.7099 17.0987 19.0085 16.5805L19.4034 15.8952C19.6833 15.4094 19.8232 15.1665 19.7961 14.908C19.7689 14.6494 19.5815 14.441 19.2068 14.0243L18.382 13.1022C18.1805 12.847 18.0373 12.4022 18.0373 12.0024C18.0373 11.6023 18.1804 11.1576 18.382 10.9024L19.2068 9.98025C19.5815 9.56354 19.7689 9.35515 19.7961 9.0966C19.8232 8.83797 19.6833 8.59509 19.4034 8.10935L19.0085 7.42409C18.7099 6.90587 18.5606 6.64668 18.3065 6.5434C18.0525 6.44005 17.7651 6.52156 17.1905 6.68468L16.2144 6.95963C15.8474 7.04427 15.4625 6.99619 15.1275 6.82403L14.858 6.66852C14.5708 6.48453 14.3499 6.21334 14.2276 5.89447L13.9605 5.09649C13.7848 4.56851 13.6877 4.29404 13.5276 4.17852C13.4796 4.1438 13.2876 3.98653 12.8172 4.00093" stroke="white" stroke-linecap="round"/>
<path d="M13.9275 9.95808C13.2556 9.4109 12.7276 9.19971 11.9596 9.19971C10.5196 9.21891 9.20447 10.4084 9.20447 11.9548C9.20447 12.8073 9.46366 13.3467 9.95324 13.9131" stroke="white" stroke-linecap="round"/>
<path d="M9.95324 13.9131C10.6252 14.4603 11.2718 14.802 12.0397 14.802C13.4797 14.7828 14.7949 13.5933 14.7949 12.0469C14.7949 11.1944 14.4171 10.5245 13.9275 9.95808" stroke="white" stroke-linecap="round"/>
</svg>
