<svg width="24" height="24" viewBox="0 0 24 24" fill="none" xmlns="http://www.w3.org/2000/svg">
<path d="M18.7851 10.4445C19.1691 10.0126 19.8315 9.35982 19.7961 9.09398C19.8233 8.83541 19.6833 8.59251 19.4034 8.10673L19.0086 7.42147C18.71 6.90323 18.5606 6.6441 18.3066 6.54077C18.0526 6.43744 17.7652 6.51898 17.1906 6.68205L16.2144 6.957C15.8475 7.0416 15.4627 6.99361 15.1276 6.82149L14.8581 6.666C14.5709 6.48202 14.35 6.21074 14.2277 5.89188L13.9605 5.094C13.7849 4.56601 13.6971 4.30201 13.4879 4.15101C13.2788 4 13.0011 4 12.4457 4H11.5538C10.9983 4 10.7206 4 10.5116 4.15101C10.3025 4.30201 10.2146 4.56601 10.039 5.094L9.77185 5.89188C9.64953 6.21074 9.42858 6.48202 9.14131 6.666L8.8718 6.82149C8.53685 6.99361 8.1519 7.0416 7.78503 6.957L6.80892 6.68205C6.2343 6.51898 5.94694 6.43744 5.69287 6.54077C5.4388 6.6441 5.28953 6.90323 4.9909 7.42147L4.59603 8.10673C4.31613 8.59251 4.17621 8.83541 4.20333 9.09398C4.23053 9.35254 4.41788 9.56091 4.79258 9.97765L5.61744 10.8997C5.81895 11.1549 5.96214 11.5997 5.96214 11.9995C5.96214 12.3997 5.81903 12.8443 5.61744 13.0996L4.79258 14.0217C4.41788 14.4384 4.23053 14.6468 4.20333 14.9054C4.17621 15.164 4.31613 15.4069 4.59603 15.8926L4.9909 16.5779C5.28953 17.0961 5.4388 17.3553 5.69287 17.4586C5.94694 17.5619 6.2343 17.4804 6.80892 17.3173L7.78503 17.0423C8.15198 16.9577 8.53693 17.0058 8.87196 17.1779L9.14139 17.3334C9.42866 17.5174 9.64953 17.7886 9.77177 18.1075L10.039 18.9055C10.2146 19.4334 10.3118 19.7079 10.4718 19.8234C10.5198 19.8581 10.7118 20.0154 11.1822 20.001M5.21435 13.5574C4.83036 13.9894 4.16799 14.6421 4.20335 14.908C4.17615 15.1665 4.31614 15.4094 4.59605 15.8952L4.99084 16.5805C5.28947 17.0987 5.43882 17.3579 5.6929 17.4612C5.94689 17.5645 6.23424 17.483 6.80886 17.3199L7.78507 17.045C8.15193 16.9604 8.5368 17.0083 8.87183 17.1805L9.14134 17.336C9.42853 17.5199 9.64948 17.7912 9.7718 18.1101L10.039 18.908C10.2146 19.4359 10.3024 19.6999 10.5115 19.8509C10.7206 20.002 10.9984 20.002 11.5538 20.002H12.4456C13.0011 20.002 13.2789 20.002 13.4879 19.8509C13.697 19.6999 13.7848 19.4359 13.9605 18.908L14.2276 18.1101C14.3499 17.7912 14.5709 17.5199 14.8582 17.336L15.1277 17.1805C15.4626 17.0083 15.8476 16.9604 16.2144 17.045L17.1906 17.3199C17.7652 17.483 18.0525 17.5645 18.3066 17.4612C18.5607 17.3579 18.7099 17.0987 19.0086 16.5805L19.4034 15.8952C19.6833 15.4094 19.8233 15.1665 19.7961 14.908C19.7689 14.6494 19.5816 14.441 19.2069 14.0243L18.382 13.1022C18.1805 12.847 18.0373 12.4022 18.0373 12.0024C18.0373 11.6023 18.1804 11.1576 18.382 10.9024L19.2069 9.98025C19.5816 9.56354 19.7689 9.35515 19.7961 9.0966C19.8233 8.83797 19.6833 8.59509 19.4034 8.10935L19.0086 7.42409C18.7099 6.90587 18.5607 6.64668 18.3066 6.5434C18.0525 6.44005 17.7652 6.52156 17.1906 6.68468L16.2144 6.95963C15.8475 7.04427 15.4625 6.99619 15.1275 6.82403L14.8581 6.66852C14.5708 6.48453 14.3499 6.21334 14.2277 5.89447L13.9605 5.09649C13.7848 4.56851 13.6877 4.29404 13.5277 4.17852C13.4797 4.1438 13.2877 3.98653 12.8173 4.00093" stroke="white" stroke-linecap="round"/>
<path d="M13.9276 9.95808C13.2556 9.4109 12.7276 9.19971 11.9597 9.19971C10.5197 9.21891 9.20453 10.4084 9.20453 11.9548C9.20453 12.8073 9.46372 13.3467 9.9533 13.9131" stroke="white" stroke-linecap="round"/>
<path d="M9.9533 13.9131C10.6253 14.4603 11.2718 14.802 12.0398 14.802C13.4798 14.7828 14.7949 13.5933 14.7949 12.0469C14.7949 11.1944 14.4172 10.5245 13.9276 9.95808" stroke="white" stroke-linecap="round"/>
</svg>
