<svg width="24" height="24" viewBox="0 0 24 24" fill="none" xmlns="http://www.w3.org/2000/svg">
<path d="M3 15.0614V6C5.1047 6.62133 9.57619 7.42671 15.0038 7.80281C17.9252 8.00525 19.3859 8.10646 20.1929 8.97688C21 9.8473 21 11.2497 21 14.0546V16.0683C21 18.9566 21 20.4008 20.0163 21.2998C19.0325 22.1987 17.6919 22.0677 15.0106 21.8058C13.7295 21.6806 12.3748 21.509 11 21.2775" stroke="white" stroke-linecap="round" stroke-linejoin="round"/>
<path d="M17.6258 8C18.0035 6.57673 18.3453 3.98822 17.327 2.70292C16.6816 1.88827 15.7223 1.96654 14.7818 2.04926C9.83791 2.48406 6.34544 3.36731 4.39301 3.96737C3.55348 4.2254 3 5.04522 3 5.96044" stroke="white" stroke-linejoin="round"/>
<path d="M15 15C15 15.8284 15.6716 16.5 16.5 16.5C17.3284 16.5 18 15.8284 18 15C18 14.1716 17.3284 13.5 16.5 13.5C15.6716 13.5 15 14.1716 15 15Z" stroke="white"/>
<path d="M4.76731 16.4749C4.75729 17.18 4.2722 19.5153 4.76731 20.0104M4.76731 20.0104C5.26243 20.5055 7.59772 20.0204 8.30285 20.0104M4.76731 20.0104L9.00995 15.7678" stroke="white" stroke-linecap="round" stroke-linejoin="round"/>
</svg>
